<?xml version="1.0" encoding="UTF-8" standalone="no"?>
<!-- Created with Inkscape (http://www.inkscape.org/) -->

<svg
   xmlns:dc="http://purl.org/dc/elements/1.1/"
   xmlns:cc="http://creativecommons.org/ns#"
   xmlns:rdf="http://www.w3.org/1999/02/22-rdf-syntax-ns#"
   xmlns:svg="http://www.w3.org/2000/svg"
   xmlns="http://www.w3.org/2000/svg"
   xmlns:xlink="http://www.w3.org/1999/xlink"
   xmlns:sodipodi="http://sodipodi.sourceforge.net/DTD/sodipodi-0.dtd"
   xmlns:inkscape="http://www.inkscape.org/namespaces/inkscape"
   version="1.1"
   id="svg10"
   width="476"
   height="309"
   viewBox="0 0 476 309"
   sodipodi:docname="game.svg"
   inkscape:version="0.92.4 (5da689c313, 2019-01-14)"
   inkscape:export-filename="C:\xampp\htdocs\gincana-jmf\img\ativid.png"
   inkscape:export-xdpi="96"
   inkscape:export-ydpi="96">
  <metadata
     id="metadata16">
    <rdf:RDF>
      <cc:Work
         rdf:about="">
        <dc:format>image/svg+xml</dc:format>
        <dc:type
           rdf:resource="http://purl.org/dc/dcmitype/StillImage" />
        <dc:title />
      </cc:Work>
    </rdf:RDF>
  </metadata>
  <defs
     id="defs14">
    <clipPath
       clipPathUnits="userSpaceOnUse"
       id="clipPath24">
      <rect
         style="fill:none;fill-opacity:1;stroke:none"
         id="rect26"
         width="431.42758"
         height="305.27914"
         x="24.388693"
         y="1.1978799"
         ry="0" />
    </clipPath>
  </defs>
  <sodipodi:namedview
     pagecolor="#ffffff"
     bordercolor="#666666"
     borderopacity="1"
     objecttolerance="10"
     gridtolerance="10"
     guidetolerance="10"
     inkscape:pageopacity="0"
     inkscape:pageshadow="2"
     inkscape:window-width="1024"
     inkscape:window-height="706"
     id="namedview12"
     showgrid="false"
     inkscape:zoom="1.1"
     inkscape:cx="266.32693"
     inkscape:cy="221.73891"
     inkscape:window-x="-8"
     inkscape:window-y="-8"
     inkscape:window-maximized="1"
     inkscape:current-layer="svg10" />
  <rect
     style="fill:none;fill-opacity:1;stroke:none"
     id="rect20"
     width="439.83746"
     height="306.12015"
     x="24.388693"
     y="1.1978799" />
  <g
     id="g881"
     transform="matrix(1.0405856,0,0,1.0951171,-71.755003,-20.712124)"
     inkscape:export-xdpi="96"
     inkscape:export-ydpi="96">
    <path
       sodipodi:nodetypes="cc"
       inkscape:connector-curvature="0"
       id="path56"
       d="M 368.25106,47.068656 C 285.88105,94.011242 211.66138,92.324296 149.783,46.271432"
       style="fill:#ffffff;stroke:#000000;stroke-width:1.75156105px;stroke-linecap:butt;stroke-linejoin:miter;stroke-opacity:0" />
    <path
       sodipodi:nodetypes="ccccccccc"
       inkscape:connector-curvature="0"
       id="path1520"
       d="m 152.60769,105.89031 13.45583,-27.75265 c 10.37271,-4.204947 4.97563,-8.409894 50.45937,-12.614841 l 11.84804,8.293627 51.22616,0.116267 c -0.203,-9.6448 6.43108,-10.743252 15.13781,-9.250884 l 26.91166,14.29682 9.25088,21.865731 C 271.46752,94.017781 212.03761,90.550558 152.60769,105.89031 Z"
       style="fill:#4fbcb5;fill-opacity:1;stroke:none;stroke-width:1px;stroke-linecap:butt;stroke-linejoin:miter;stroke-opacity:1" />
    <path
       sodipodi:nodetypes="cccccccccc"
       inkscape:connector-curvature="0"
       id="path1524"
       d="m 142.12721,170.53295 -7.94818,1.62221 c -6.38815,39.89334 11.58871,51.21387 21.91887,53.61237 8.98476,-3.85061 28.63276,-32.34548 42.94914,-42.65293 l 87.97168,0.2962 40.28333,39.09852 c 3.06599,2.98825 5.41118,2.37248 7.70122,1.48101 22.43281,-7.21704 22.97753,-30.85014 17.17966,-59.24019 l -67.23762,-10.07083 c -48.12643,-0.11231 -91.05253,-0.49926 -142.8181,15.85364 z"
       style="fill:#4fbcb5;fill-opacity:1;stroke:none;stroke-width:1px;stroke-linecap:butt;stroke-linejoin:miter;stroke-opacity:1" />
    <path
       sodipodi:nodetypes="ccccccccccccccccc"
       inkscape:connector-curvature="0"
       id="path1522"
       d="m 142.12721,170.53295 6.26947,-2.8208 -0.59241,13.03284 c -0.89535,36.41113 14.32391,40.16851 20.43787,38.20992 l 37.91372,-36.72892 c 3.65315,-2.24102 7.30629,-5.04028 10.95944,-5.03541 l 74.05023,-0.2962 c 3.54271,1.09777 6.42001,2.86095 9.18223,4.73921 l 38.20993,37.32132 c 11.88942,6.76773 27.7324,-22.92622 18.95686,-51.53896 h 6.81262 c 6.95536,35.76113 -14.85275,61.33849 -25.47328,59.83259 -15.99485,-14.41511 -26.78044,-34.03949 -47.98456,-43.24534 h -74.34644 c -16.85162,8.01649 -29.45402,27.36423 -44.13394,41.17193 -30.89718,5.68197 -30.93423,-38.8504 -30.2125,-43.54154 z"
       style="fill:#010102;fill-opacity:1;stroke:none;stroke-width:1px;stroke-linecap:butt;stroke-linejoin:miter;stroke-opacity:1" />
    <path
       sodipodi:nodetypes="ccccccccccccccccc"
       inkscape:connector-curvature="0"
       id="path1526"
       d="m 160.83712,106.10235 c 5.11484,-13.234761 10.17491,-25.921679 14.51384,-31.397301 4.94249,-6.917469 30.58899,-16.249237 41.46813,-15.994851 5.1675,1.513036 9.51977,4.656533 13.92145,7.701224 h 48.28075 c 3.429,-8.859867 16.77446,-8.07009 16.88346,-7.997425 5.17206,0.330425 24.2286,6.857758 34.95171,13.329042 7.19758,10.337446 10.92594,21.831301 15.99485,32.878301 l -8.88604,-1.1848 -10.07082,-22.807472 c -0.13831,-2.685596 -23.48493,-13.333948 -37.02512,-14.217646 -4.35741,-0.0525 -7.61777,4.283145 -11.25563,7.108823 l -51.24277,0.296201 c -3.45619,-3.304655 -6.84893,-5.198778 -11.84804,-8.293627 -12.0455,2.581559 -24.09101,4.474994 -36.13651,13.921445 -7.3962,8.880856 -11.55184,24.584686 -11.55184,24.584686 z"
       style="fill:#000000;fill-opacity:1;stroke:none;stroke-width:1px;stroke-linecap:butt;stroke-linejoin:miter;stroke-opacity:1" />
    <text
       transform="matrix(-1.0313568,-0.06090399,0.06570688,-0.95596894,521.45693,223.19644)"
       id="text1530"
       style="font-style:normal;font-variant:normal;font-weight:normal;font-stretch:normal;font-size:42.66666794px;line-height:1.25;font-family:'Bauhaus 93';-inkscape-font-specification:'Bauhaus 93, Normal';font-variant-ligatures:normal;font-variant-caps:normal;font-variant-numeric:normal;font-feature-settings:normal;text-align:start;letter-spacing:0px;word-spacing:0px;writing-mode:lr-tb;text-anchor:start;fill:#000000;fill-opacity:1;stroke:none"
       xml:space="preserve"><textPath
         id="textPath61"
         xlink:href="#path56"><tspan
   id="tspan1528">ATIVIDADES</tspan></textPath></text>
  </g>
</svg>
